<svg xmlns="http://www.w3.org/2000/svg" xmlns:xlink="http://www.w3.org/1999/xlink" width="512" zoomAndPan="magnify" viewBox="0 0 384 383.999986" height="512" preserveAspectRatio="xMidYMid meet" version="1.0"><defs><clipPath id="79fb7ab4d2"><path d="M 28.078125 0 L 355.828125 0 L 355.828125 384 L 28.078125 384 Z M 28.078125 0 " clip-rule="nonzero"/></clipPath></defs><g clip-path="url(#79fb7ab4d2)"><path fill="#000000" d="M 271.898438 128.203125 L 250.109375 128.203125 L 263.058594 113.21875 C 266.039062 113.929688 269.109375 114.304688 272.324219 114.304688 C 293.96875 114.304688 311.644531 96.722656 311.785156 75.070312 C 311.929688 53.277344 294.300781 35.453125 272.324219 35.359375 C 250.675781 35.359375 232.953125 52.945312 232.859375 74.597656 C 232.8125 80.175781 233.945312 85.707031 236.167969 90.765625 L 204.3125 128.203125 L 190.371094 128.203125 L 150.578125 78.992188 C 155.585938 70.910156 158.328125 61.550781 158.421875 51.953125 C 158.519531 38.148438 153.222656 25.148438 143.535156 15.363281 C 133.847656 5.53125 120.945312 0.09375 106.8125 0 C 78.550781 0 55.394531 23.023438 55.203125 51.339844 C 55.109375 65.140625 60.402344 78.140625 70.089844 87.976562 C 79.78125 97.808594 92.730469 103.246094 106.8125 103.339844 C 110.5 103.339844 114.1875 102.960938 117.730469 102.203125 L 138.667969 128.300781 L 111.964844 128.300781 C 74.203125 128.203125 28.171875 139.597656 28.171875 217.644531 L 28.171875 300.136719 C 28.171875 346.277344 65.886719 384 112.011719 384 L 271.898438 384 C 317.976562 384 355.738281 346.277344 355.738281 300.136719 L 355.738281 217.644531 C 355.738281 148.296875 309.660156 128.203125 271.898438 128.203125 Z M 280.308594 335.546875 L 103.601562 335.546875 C 90.601562 335.546875 79.636719 324.578125 79.636719 311.578125 L 79.734375 217.644531 L 79.734375 203.320312 C 80.207031 190.699219 90.933594 180.207031 103.601562 180.207031 L 280.308594 180.207031 C 293.308594 180.207031 304.273438 191.171875 304.273438 204.171875 L 304.175781 298.152344 L 304.273438 298.152344 L 304.273438 311.578125 C 304.273438 324.578125 293.308594 335.546875 280.308594 335.546875 Z M 280.308594 335.546875 " fill-opacity="1" fill-rule="nonzero"/></g><path fill="#00a07f" d="M 156.296875 285.671875 C 156.203125 270.449219 156.105469 245.488281 156.011719 230.269531 C 155.917969 215.046875 167.308594 208.757812 180.351562 216.273438 C 193.347656 223.839844 215.089844 236.175781 228.085938 243.742188 C 241.082031 251.304688 241.367188 263.738281 228.417969 271.441406 C 215.46875 279.148438 193.585938 291.722656 180.636719 299.382812 C 167.734375 307.085938 156.34375 300.894531 156.296875 285.671875 Z M 156.296875 285.671875 " fill-opacity="1" fill-rule="nonzero"/></svg>